<?xml version="1.0" encoding="UTF-8" standalone="no"?>
<!DOCTYPE svg PUBLIC "-//W3C//DTD SVG 1.1//EN"
 "http://www.w3.org/Graphics/SVG/1.1/DTD/svg11.dtd">
<!-- Generated by graphviz version 2.38.0 (20140413.2041)
 -->
<!-- Title: snakemake_dag Pages: 1 -->
<svg width="1208pt" height="548pt"
 viewBox="0.00 0.00 1208.00 548.00" xmlns="http://www.w3.org/2000/svg" xmlns:xlink="http://www.w3.org/1999/xlink">
<g id="graph0" class="graph" transform="scale(1 1) rotate(0) translate(4 544)">
<title>snakemake_dag</title>
<polygon fill="white" stroke="none" points="-4,4 -4,-544 1204,-544 1204,4 -4,4"/>
<!-- 0 -->
<g id="node1" class="node"><title>0</title>
<path fill="none" stroke="#d8cb56" stroke-width="2" d="M447.5,-36C447.5,-36 417.5,-36 417.5,-36 411.5,-36 405.5,-30 405.5,-24 405.5,-24 405.5,-12 405.5,-12 405.5,-6 411.5,-0 417.5,-0 417.5,-0 447.5,-0 447.5,-0 453.5,-0 459.5,-6 459.5,-12 459.5,-12 459.5,-24 459.5,-24 459.5,-30 453.5,-36 447.5,-36"/>
<text text-anchor="middle" x="432.5" y="-15.5" font-family="sans" font-size="10.00">all</text>
</g>
<!-- 1 -->
<g id="node2" class="node"><title>1</title>
<path fill="none" stroke="#56d863" stroke-width="2" d="M286.5,-252C286.5,-252 100.5,-252 100.5,-252 94.5,-252 88.5,-246 88.5,-240 88.5,-240 88.5,-228 88.5,-228 88.5,-222 94.5,-216 100.5,-216 100.5,-216 286.5,-216 286.5,-216 292.5,-216 298.5,-222 298.5,-228 298.5,-228 298.5,-240 298.5,-240 298.5,-246 292.5,-252 286.5,-252"/>
<text text-anchor="middle" x="193.5" y="-231.5" font-family="sans" font-size="10.00">report_filtered_and_deduplicated_count</text>
</g>
<!-- 1&#45;&gt;0 -->
<g id="edge1" class="edge"><title>1&#45;&gt;0</title>
<path fill="none" stroke="grey" stroke-width="2" d="M202.326,-215.664C219.514,-183.416 260.404,-113.707 312.5,-72 337.142,-52.272 370.276,-38.3702 395.484,-29.7687"/>
<polygon fill="grey" stroke="grey" stroke-width="2" points="396.656,-33.0677 405.065,-26.6222 394.472,-26.4171 396.656,-33.0677"/>
</g>
<!-- 2 -->
<g id="node3" class="node"><title>2</title>
<path fill="none" stroke="#56a2d8" stroke-width="2" d="M366.5,-324C366.5,-324 286.5,-324 286.5,-324 280.5,-324 274.5,-318 274.5,-312 274.5,-312 274.5,-300 274.5,-300 274.5,-294 280.5,-288 286.5,-288 286.5,-288 366.5,-288 366.5,-288 372.5,-288 378.5,-294 378.5,-300 378.5,-300 378.5,-312 378.5,-312 378.5,-318 372.5,-324 366.5,-324"/>
<text text-anchor="middle" x="326.5" y="-303.5" font-family="sans" font-size="10.00">collect_cameraPR</text>
</g>
<!-- 2&#45;&gt;0 -->
<g id="edge5" class="edge"><title>2&#45;&gt;0</title>
<path fill="none" stroke="grey" stroke-width="2" d="M323.452,-287.917C317.113,-247.111 306.445,-142.154 349.5,-72 360.215,-54.5415 379.08,-41.8156 396.121,-33.2166"/>
<polygon fill="grey" stroke="grey" stroke-width="2" points="397.791,-36.2982 405.336,-28.8601 394.8,-29.9697 397.791,-36.2982"/>
</g>
<!-- 10 -->
<g id="node11" class="node"><title>10</title>
<path fill="none" stroke="#afd856" stroke-width="2" d="M585.5,-252C585.5,-252 473.5,-252 473.5,-252 467.5,-252 461.5,-246 461.5,-240 461.5,-240 461.5,-228 461.5,-228 461.5,-222 467.5,-216 473.5,-216 473.5,-216 585.5,-216 585.5,-216 591.5,-216 597.5,-222 597.5,-228 597.5,-228 597.5,-240 597.5,-240 597.5,-246 591.5,-252 585.5,-252"/>
<text text-anchor="middle" x="529.5" y="-231.5" font-family="sans" font-size="10.00">write_cameraPR_termDf</text>
</g>
<!-- 2&#45;&gt;10 -->
<g id="edge21" class="edge"><title>2&#45;&gt;10</title>
<path fill="none" stroke="grey" stroke-width="2" d="M375.9,-287.966C404.387,-278.142 440.386,-265.729 470.371,-255.389"/>
<polygon fill="grey" stroke="grey" stroke-width="2" points="471.566,-258.68 479.879,-252.111 469.284,-252.062 471.566,-258.68"/>
</g>
<!-- 3 -->
<g id="node4" class="node"><title>3</title>
<path fill="none" stroke="#56b9d8" stroke-width="2" d="M424,-108C424,-108 371,-108 371,-108 365,-108 359,-102 359,-96 359,-96 359,-84 359,-84 359,-78 365,-72 371,-72 371,-72 424,-72 424,-72 430,-72 436,-78 436,-84 436,-84 436,-96 436,-96 436,-102 430,-108 424,-108"/>
<text text-anchor="middle" x="397.5" y="-87.5" font-family="sans" font-size="10.00">plot_metrics</text>
</g>
<!-- 3&#45;&gt;0 -->
<g id="edge3" class="edge"><title>3&#45;&gt;0</title>
<path fill="none" stroke="grey" stroke-width="2" d="M406.152,-71.6966C410.136,-63.7284 414.95,-54.0995 419.368,-45.2641"/>
<polygon fill="grey" stroke="grey" stroke-width="2" points="422.606,-46.6139 423.948,-36.1043 416.345,-43.4833 422.606,-46.6139"/>
</g>
<!-- 4 -->
<g id="node5" class="node"><title>4</title>
<path fill="none" stroke="#bed856" stroke-width="2" d="M544.5,-180C544.5,-180 404.5,-180 404.5,-180 398.5,-180 392.5,-174 392.5,-168 392.5,-168 392.5,-156 392.5,-156 392.5,-150 398.5,-144 404.5,-144 404.5,-144 544.5,-144 544.5,-144 550.5,-144 556.5,-150 556.5,-156 556.5,-156 556.5,-168 556.5,-168 556.5,-174 550.5,-180 544.5,-180"/>
<text text-anchor="middle" x="474.5" y="-159.5" font-family="sans" font-size="10.00">plot_metrics_reduced_species</text>
</g>
<!-- 4&#45;&gt;0 -->
<g id="edge2" class="edge"><title>4&#45;&gt;0</title>
<path fill="none" stroke="grey" stroke-width="2" d="M469.434,-143.871C462.244,-119.564 449.01,-74.8187 440.49,-46.0132"/>
<polygon fill="grey" stroke="grey" stroke-width="2" points="443.777,-44.7859 437.584,-36.1893 437.064,-46.7713 443.777,-44.7859"/>
</g>
<!-- 5 -->
<g id="node6" class="node"><title>5</title>
<path fill="none" stroke="#5692d8" stroke-width="2" d="M1066.5,-108C1066.5,-108 956.5,-108 956.5,-108 950.5,-108 944.5,-102 944.5,-96 944.5,-96 944.5,-84 944.5,-84 944.5,-78 950.5,-72 956.5,-72 956.5,-72 1066.5,-72 1066.5,-72 1072.5,-72 1078.5,-78 1078.5,-84 1078.5,-84 1078.5,-96 1078.5,-96 1078.5,-102 1072.5,-108 1066.5,-108"/>
<text text-anchor="middle" x="1011.5" y="-87.5" font-family="sans" font-size="10.00">plot_term_size_v_effect</text>
</g>
<!-- 5&#45;&gt;0 -->
<g id="edge8" class="edge"><title>5&#45;&gt;0</title>
<path fill="none" stroke="grey" stroke-width="2" d="M944.473,-80.7025C921.924,-77.9219 896.624,-74.8138 873.5,-72 723.807,-53.7847 545.481,-32.472 469.614,-23.4227"/>
<polygon fill="grey" stroke="grey" stroke-width="2" points="469.946,-19.9377 459.602,-22.2288 469.117,-26.8884 469.946,-19.9377"/>
</g>
<!-- 6 -->
<g id="node7" class="node"><title>6</title>
<path fill="none" stroke="#d6d856" stroke-width="2" d="M853,-108C853,-108 730,-108 730,-108 724,-108 718,-102 718,-96 718,-96 718,-84 718,-84 718,-78 724,-72 730,-72 730,-72 853,-72 853,-72 859,-72 865,-78 865,-84 865,-84 865,-96 865,-96 865,-102 859,-108 853,-108"/>
<text text-anchor="middle" x="791.5" y="-87.5" font-family="sans" font-size="10.00">plot_non_redundant_terms</text>
</g>
<!-- 6&#45;&gt;0 -->
<g id="edge7" class="edge"><title>6&#45;&gt;0</title>
<path fill="none" stroke="grey" stroke-width="2" d="M717.985,-74.6655C642.513,-59.9495 528.095,-37.6398 469.673,-26.2482"/>
<polygon fill="grey" stroke="grey" stroke-width="2" points="470.261,-22.797 459.776,-24.3184 468.921,-29.6676 470.261,-22.797"/>
</g>
<!-- 7 -->
<g id="node8" class="node"><title>7</title>
<path fill="none" stroke="#56a9d8" stroke-width="2" d="M636.5,-108C636.5,-108 532.5,-108 532.5,-108 526.5,-108 520.5,-102 520.5,-96 520.5,-96 520.5,-84 520.5,-84 520.5,-78 526.5,-72 532.5,-72 532.5,-72 636.5,-72 636.5,-72 642.5,-72 648.5,-78 648.5,-84 648.5,-84 648.5,-96 648.5,-96 648.5,-102 642.5,-108 636.5,-108"/>
<text text-anchor="middle" x="584.5" y="-87.5" font-family="sans" font-size="10.00">plot_database_novelty</text>
</g>
<!-- 7&#45;&gt;0 -->
<g id="edge4" class="edge"><title>7&#45;&gt;0</title>
<path fill="none" stroke="grey" stroke-width="2" d="M547.317,-71.8761C523.525,-60.9193 492.795,-46.7675 469.115,-35.8621"/>
<polygon fill="grey" stroke="grey" stroke-width="2" points="470.312,-32.5602 459.765,-31.5563 467.384,-38.9184 470.312,-32.5602"/>
</g>
<!-- 8 -->
<g id="node9" class="node"><title>8</title>
<path fill="none" stroke="#d8ac56" stroke-width="2" d="M109,-324C109,-324 12,-324 12,-324 6,-324 7.10543e-15,-318 7.10543e-15,-312 7.10543e-15,-312 7.10543e-15,-300 7.10543e-15,-300 7.10543e-15,-294 6,-288 12,-288 12,-288 109,-288 109,-288 115,-288 121,-294 121,-300 121,-300 121,-312 121,-312 121,-318 115,-324 109,-324"/>
<text text-anchor="middle" x="60.5" y="-303.5" font-family="sans" font-size="10.00">plot_user_input_stats</text>
</g>
<!-- 8&#45;&gt;0 -->
<g id="edge6" class="edge"><title>8&#45;&gt;0</title>
<path fill="none" stroke="grey" stroke-width="2" d="M60.6456,-287.921C61.5588,-268.947 65.3457,-238.08 79.5,-216 137.258,-125.901 177.593,-121.463 272.5,-72 312.478,-51.1644 362.286,-36.2118 395.613,-27.6073"/>
<polygon fill="grey" stroke="grey" stroke-width="2" points="396.556,-30.9791 405.397,-25.1413 394.845,-24.1913 396.556,-30.9791"/>
</g>
<!-- 9 -->
<g id="node10" class="node"><title>9</title>
<path fill="none" stroke="#56d8a2" stroke-width="2" d="M239,-396C239,-396 148,-396 148,-396 142,-396 136,-390 136,-384 136,-384 136,-372 136,-372 136,-366 142,-360 148,-360 148,-360 239,-360 239,-360 245,-360 251,-366 251,-372 251,-372 251,-384 251,-384 251,-390 245,-396 239,-396"/>
<text text-anchor="middle" x="193.5" y="-375.5" font-family="sans" font-size="10.00">apply_deduplication</text>
</g>
<!-- 9&#45;&gt;1 -->
<g id="edge9" class="edge"><title>9&#45;&gt;1</title>
<path fill="none" stroke="grey" stroke-width="2" d="M193.5,-359.871C193.5,-335.67 193.5,-291.211 193.5,-262.393"/>
<polygon fill="grey" stroke="grey" stroke-width="2" points="197,-262.189 193.5,-252.189 190,-262.189 197,-262.189"/>
</g>
<!-- 9&#45;&gt;2 -->
<g id="edge10" class="edge"><title>9&#45;&gt;2</title>
<path fill="none" stroke="grey" stroke-width="2" d="M226.035,-359.876C243.747,-350.554 265.853,-338.919 284.816,-328.939"/>
<polygon fill="grey" stroke="grey" stroke-width="2" points="286.62,-331.944 293.839,-324.19 283.36,-325.75 286.62,-331.944"/>
</g>
<!-- 9&#45;&gt;8 -->
<g id="edge18" class="edge"><title>9&#45;&gt;8</title>
<path fill="none" stroke="grey" stroke-width="2" d="M160.965,-359.876C143.253,-350.554 121.147,-338.919 102.184,-328.939"/>
<polygon fill="grey" stroke="grey" stroke-width="2" points="103.64,-325.75 93.1605,-324.19 100.38,-331.944 103.64,-325.75"/>
</g>
<!-- 10&#45;&gt;3 -->
<g id="edge11" class="edge"><title>10&#45;&gt;3</title>
<path fill="none" stroke="grey" stroke-width="2" d="M461.235,-225.497C432.296,-218.554 401.22,-205.284 383.5,-180 370.734,-161.784 376.471,-136.342 384.094,-117.323"/>
<polygon fill="grey" stroke="grey" stroke-width="2" points="387.356,-118.599 388.164,-108.035 380.945,-115.79 387.356,-118.599"/>
</g>
<!-- 10&#45;&gt;4 -->
<g id="edge12" class="edge"><title>10&#45;&gt;4</title>
<path fill="none" stroke="grey" stroke-width="2" d="M515.904,-215.697C509.377,-207.389 501.432,-197.277 494.253,-188.141"/>
<polygon fill="grey" stroke="grey" stroke-width="2" points="496.869,-185.805 487.939,-180.104 491.365,-190.13 496.869,-185.805"/>
</g>
<!-- 10&#45;&gt;7 -->
<g id="edge15" class="edge"><title>10&#45;&gt;7</title>
<path fill="none" stroke="grey" stroke-width="2" d="M543.665,-215.851C551.19,-205.93 559.997,-192.89 565.5,-180 573.913,-160.293 578.745,-136.488 581.428,-118.458"/>
<polygon fill="grey" stroke="grey" stroke-width="2" points="584.927,-118.705 582.803,-108.326 577.99,-117.764 584.927,-118.705"/>
</g>
<!-- 12 -->
<g id="node13" class="node"><title>12</title>
<path fill="none" stroke="#56d882" stroke-width="2" d="M916.5,-180C916.5,-180 770.5,-180 770.5,-180 764.5,-180 758.5,-174 758.5,-168 758.5,-168 758.5,-156 758.5,-156 758.5,-150 764.5,-144 770.5,-144 770.5,-144 916.5,-144 916.5,-144 922.5,-144 928.5,-150 928.5,-156 928.5,-156 928.5,-168 928.5,-168 928.5,-174 922.5,-180 916.5,-180"/>
<text text-anchor="middle" x="843.5" y="-159.5" font-family="sans" font-size="10.00">discard_enriched_term_subsets</text>
</g>
<!-- 10&#45;&gt;12 -->
<g id="edge23" class="edge"><title>10&#45;&gt;12</title>
<path fill="none" stroke="grey" stroke-width="2" d="M597.633,-217.811C644.473,-207.369 707.049,-193.419 757.348,-182.206"/>
<polygon fill="grey" stroke="grey" stroke-width="2" points="758.237,-185.594 767.236,-180.002 756.714,-178.761 758.237,-185.594"/>
</g>
<!-- 13 -->
<g id="node14" class="node"><title>13</title>
<path fill="none" stroke="#d88556" stroke-width="2" d="M728.5,-180C728.5,-180 624.5,-180 624.5,-180 618.5,-180 612.5,-174 612.5,-168 612.5,-168 612.5,-156 612.5,-156 612.5,-150 618.5,-144 624.5,-144 624.5,-144 728.5,-144 728.5,-144 734.5,-144 740.5,-150 740.5,-156 740.5,-156 740.5,-168 740.5,-168 740.5,-174 734.5,-180 728.5,-180"/>
<text text-anchor="middle" x="676.5" y="-159.5" font-family="sans" font-size="10.00">calc_database_novelty</text>
</g>
<!-- 10&#45;&gt;13 -->
<g id="edge24" class="edge"><title>10&#45;&gt;13</title>
<path fill="none" stroke="grey" stroke-width="2" d="M565.46,-215.876C585.377,-206.392 610.322,-194.513 631.52,-184.419"/>
<polygon fill="grey" stroke="grey" stroke-width="2" points="633.133,-187.528 640.657,-180.068 630.123,-181.208 633.133,-187.528"/>
</g>
<!-- 11 -->
<g id="node12" class="node"><title>11</title>
<path fill="none" stroke="#56c9d8" stroke-width="2" d="M1188,-180C1188,-180 959,-180 959,-180 953,-180 947,-174 947,-168 947,-168 947,-156 947,-156 947,-150 953,-144 959,-144 959,-144 1188,-144 1188,-144 1194,-144 1200,-150 1200,-156 1200,-156 1200,-168 1200,-168 1200,-174 1194,-180 1188,-180"/>
<text text-anchor="middle" x="1073.5" y="-159.5" font-family="sans" font-size="10.00">write_cameraPR_termDf_downsampled_PubMed</text>
</g>
<!-- 11&#45;&gt;5 -->
<g id="edge13" class="edge"><title>11&#45;&gt;5</title>
<path fill="none" stroke="grey" stroke-width="2" d="M1058.17,-143.697C1050.74,-135.305 1041.68,-125.07 1033.52,-115.861"/>
<polygon fill="grey" stroke="grey" stroke-width="2" points="1035.9,-113.27 1026.65,-108.104 1030.66,-117.911 1035.9,-113.27"/>
</g>
<!-- 12&#45;&gt;6 -->
<g id="edge14" class="edge"><title>12&#45;&gt;6</title>
<path fill="none" stroke="grey" stroke-width="2" d="M830.646,-143.697C824.475,-135.389 816.963,-125.277 810.176,-116.141"/>
<polygon fill="grey" stroke="grey" stroke-width="2" points="812.979,-114.045 804.206,-108.104 807.36,-118.219 812.979,-114.045"/>
</g>
<!-- 13&#45;&gt;7 -->
<g id="edge16" class="edge"><title>13&#45;&gt;7</title>
<path fill="none" stroke="grey" stroke-width="2" d="M653.758,-143.697C642.06,-134.796 627.639,-123.823 614.99,-114.199"/>
<polygon fill="grey" stroke="grey" stroke-width="2" points="617.058,-111.374 606.98,-108.104 612.819,-116.945 617.058,-111.374"/>
</g>
<!-- 14 -->
<g id="node15" class="node"><title>14</title>
<path fill="none" stroke="#d85656" stroke-width="2" d="M106,-396C106,-396 15,-396 15,-396 9,-396 3,-390 3,-384 3,-384 3,-372 3,-372 3,-366 9,-360 15,-360 15,-360 106,-360 106,-360 112,-360 118,-366 118,-372 118,-372 118,-384 118,-384 118,-390 112,-396 106,-396"/>
<text text-anchor="middle" x="60.5" y="-375.5" font-family="sans" font-size="10.00">get_proteome_sizes</text>
</g>
<!-- 14&#45;&gt;8 -->
<g id="edge17" class="edge"><title>14&#45;&gt;8</title>
<path fill="none" stroke="grey" stroke-width="2" d="M60.5,-359.697C60.5,-351.983 60.5,-342.712 60.5,-334.112"/>
<polygon fill="grey" stroke="grey" stroke-width="2" points="64.0001,-334.104 60.5,-324.104 57.0001,-334.104 64.0001,-334.104"/>
</g>
<!-- 15 -->
<g id="node16" class="node"><title>15</title>
<path fill="none" stroke="#56d8b9" stroke-width="2" d="M219,-540C219,-540 168,-540 168,-540 162,-540 156,-534 156,-528 156,-528 156,-516 156,-516 156,-510 162,-504 168,-504 168,-504 219,-504 219,-504 225,-504 231,-510 231,-516 231,-516 231,-528 231,-528 231,-534 225,-540 219,-540"/>
<text text-anchor="middle" x="193.5" y="-519.5" font-family="sans" font-size="10.00">filter_inputs</text>
</g>
<!-- 15&#45;&gt;9 -->
<g id="edge20" class="edge"><title>15&#45;&gt;9</title>
<path fill="none" stroke="grey" stroke-width="2" d="M179.173,-503.566C172.052,-493.762 164.194,-480.923 160.5,-468 156.102,-452.616 156.102,-447.384 160.5,-432 163.213,-422.51 168.172,-413.065 173.435,-404.834"/>
<polygon fill="grey" stroke="grey" stroke-width="2" points="176.422,-406.666 179.173,-396.434 170.642,-402.717 176.422,-406.666"/>
</g>
<!-- 16 -->
<g id="node17" class="node"><title>16</title>
<path fill="none" stroke="#56d892" stroke-width="2" d="M311.5,-468C311.5,-468 181.5,-468 181.5,-468 175.5,-468 169.5,-462 169.5,-456 169.5,-456 169.5,-444 169.5,-444 169.5,-438 175.5,-432 181.5,-432 181.5,-432 311.5,-432 311.5,-432 317.5,-432 323.5,-438 323.5,-444 323.5,-444 323.5,-456 323.5,-456 323.5,-462 317.5,-468 311.5,-468"/>
<text text-anchor="middle" x="246.5" y="-447.5" font-family="sans" font-size="10.00">separate_inputs_by_species</text>
</g>
<!-- 15&#45;&gt;16 -->
<g id="edge25" class="edge"><title>15&#45;&gt;16</title>
<path fill="none" stroke="grey" stroke-width="2" d="M206.601,-503.697C212.891,-495.389 220.547,-485.277 227.465,-476.141"/>
<polygon fill="grey" stroke="grey" stroke-width="2" points="230.304,-478.19 233.55,-468.104 224.723,-473.964 230.304,-478.19"/>
</g>
<!-- 16&#45;&gt;9 -->
<g id="edge19" class="edge"><title>16&#45;&gt;9</title>
<path fill="none" stroke="grey" stroke-width="2" d="M233.399,-431.697C227.109,-423.389 219.453,-413.277 212.535,-404.141"/>
<polygon fill="grey" stroke="grey" stroke-width="2" points="215.277,-401.964 206.45,-396.104 209.696,-406.19 215.277,-401.964"/>
</g>
<!-- 17 -->
<g id="node18" class="node"><title>17</title>
<path fill="none" stroke="#c6d856" stroke-width="2" d="M1172,-252C1172,-252 975,-252 975,-252 969,-252 963,-246 963,-240 963,-240 963,-228 963,-228 963,-222 969,-216 975,-216 975,-216 1172,-216 1172,-216 1178,-216 1184,-222 1184,-228 1184,-228 1184,-240 1184,-240 1184,-246 1178,-252 1172,-252"/>
<text text-anchor="middle" x="1073.5" y="-231.5" font-family="sans" font-size="10.00">collect_cameraPR_downsampled_PubMed</text>
</g>
<!-- 17&#45;&gt;11 -->
<g id="edge22" class="edge"><title>17&#45;&gt;11</title>
<path fill="none" stroke="grey" stroke-width="2" d="M1073.5,-215.697C1073.5,-207.983 1073.5,-198.712 1073.5,-190.112"/>
<polygon fill="grey" stroke="grey" stroke-width="2" points="1077,-190.104 1073.5,-180.104 1070,-190.104 1077,-190.104"/>
</g>
</g>
</svg>
