<?xml version="1.0" encoding="UTF-8" standalone="no"?>
<!DOCTYPE svg PUBLIC "-//W3C//DTD SVG 1.1//EN"
 "http://www.w3.org/Graphics/SVG/1.1/DTD/svg11.dtd">
<!-- Generated by graphviz version 2.38.0 (20140413.2041)
 -->
<!-- Title: snakemake_dag Pages: 1 -->
<svg width="1799pt" height="548pt"
 viewBox="0.00 0.00 1799.00 548.00" xmlns="http://www.w3.org/2000/svg" xmlns:xlink="http://www.w3.org/1999/xlink">
<g id="graph0" class="graph" transform="scale(1 1) rotate(0) translate(4 544)">
<title>snakemake_dag</title>
<polygon fill="white" stroke="none" points="-4,4 -4,-544 1795,-544 1795,4 -4,4"/>
<!-- 0 -->
<g id="node1" class="node"><title>0</title>
<path fill="none" stroke="#d6d856" stroke-width="2" d="M958.5,-36C958.5,-36 928.5,-36 928.5,-36 922.5,-36 916.5,-30 916.5,-24 916.5,-24 916.5,-12 916.5,-12 916.5,-6 922.5,-0 928.5,-0 928.5,-0 958.5,-0 958.5,-0 964.5,-0 970.5,-6 970.5,-12 970.5,-12 970.5,-24 970.5,-24 970.5,-30 964.5,-36 958.5,-36"/>
<text text-anchor="middle" x="943.5" y="-15.5" font-family="sans" font-size="10.00">all</text>
</g>
<!-- 1 -->
<g id="node2" class="node"><title>1</title>
<path fill="none" stroke="#d85656" stroke-width="2" d="M209,-252C209,-252 12,-252 12,-252 6,-252 1.42109e-14,-246 1.42109e-14,-240 1.42109e-14,-240 1.42109e-14,-228 1.42109e-14,-228 1.42109e-14,-222 6,-216 12,-216 12,-216 209,-216 209,-216 215,-216 221,-222 221,-228 221,-228 221,-240 221,-240 221,-246 215,-252 209,-252"/>
<text text-anchor="middle" x="110.5" y="-231.5" font-family="sans" font-size="10.00">collect_cameraPR_downsampled_PubMed</text>
</g>
<!-- 1&#45;&gt;0 -->
<g id="edge2" class="edge"><title>1&#45;&gt;0</title>
<path fill="none" stroke="grey" stroke-width="2" d="M83.1604,-215.775C71.3896,-206.718 58.8826,-194.478 52.5,-180 46.0459,-165.359 44.6168,-157.923 52.5,-144 83.1443,-89.8763 113.165,-90.6492 172.5,-72 311.765,-28.2286 771.355,-20.576 906.075,-19.2651"/>
<polygon fill="grey" stroke="grey" stroke-width="2" points="906.325,-22.7631 916.292,-19.172 906.261,-15.7634 906.325,-22.7631"/>
</g>
<!-- 15 -->
<g id="node16" class="node"><title>15</title>
<path fill="none" stroke="#56d89a" stroke-width="2" d="M303,-180C303,-180 74,-180 74,-180 68,-180 62,-174 62,-168 62,-168 62,-156 62,-156 62,-150 68,-144 74,-144 74,-144 303,-144 303,-144 309,-144 315,-150 315,-156 315,-156 315,-168 315,-168 315,-174 309,-180 303,-180"/>
<text text-anchor="middle" x="188.5" y="-159.5" font-family="sans" font-size="10.00">write_cameraPR_termDf_downsampled_PubMed</text>
</g>
<!-- 1&#45;&gt;15 -->
<g id="edge28" class="edge"><title>1&#45;&gt;15</title>
<path fill="none" stroke="grey" stroke-width="2" d="M129.781,-215.697C139.415,-207.05 151.229,-196.449 161.727,-187.027"/>
<polygon fill="grey" stroke="grey" stroke-width="2" points="164.336,-189.388 169.441,-180.104 159.661,-184.179 164.336,-189.388"/>
</g>
<!-- 2 -->
<g id="node3" class="node"><title>2</title>
<path fill="none" stroke="#5673d8" stroke-width="2" d="M691.5,-252C691.5,-252 449.5,-252 449.5,-252 443.5,-252 437.5,-246 437.5,-240 437.5,-240 437.5,-228 437.5,-228 437.5,-222 443.5,-216 449.5,-216 449.5,-216 691.5,-216 691.5,-216 697.5,-216 703.5,-222 703.5,-228 703.5,-228 703.5,-240 703.5,-240 703.5,-246 697.5,-252 691.5,-252"/>
<text text-anchor="middle" x="570.5" y="-231.5" font-family="sans" font-size="10.00">collect_cameraPR_downsampled_PubMed_nolimits</text>
</g>
<!-- 2&#45;&gt;0 -->
<g id="edge4" class="edge"><title>2&#45;&gt;0</title>
<path fill="none" stroke="grey" stroke-width="2" d="M597.48,-215.766C611.255,-206.21 627.751,-193.539 640.5,-180 680.049,-138.002 665.023,-104.772 712.5,-72 771.652,-31.1695 857.634,-21.3836 906.289,-19.2864"/>
<polygon fill="grey" stroke="grey" stroke-width="2" points="906.498,-22.7814 916.371,-18.9397 906.257,-15.7855 906.498,-22.7814"/>
</g>
<!-- 19 -->
<g id="node20" class="node"><title>19</title>
<path fill="none" stroke="#c6d856" stroke-width="2" d="M619.5,-180C619.5,-180 345.5,-180 345.5,-180 339.5,-180 333.5,-174 333.5,-168 333.5,-168 333.5,-156 333.5,-156 333.5,-150 339.5,-144 345.5,-144 345.5,-144 619.5,-144 619.5,-144 625.5,-144 631.5,-150 631.5,-156 631.5,-156 631.5,-168 631.5,-168 631.5,-174 625.5,-180 619.5,-180"/>
<text text-anchor="middle" x="482.5" y="-159.5" font-family="sans" font-size="10.00">write_cameraPR_termDf_downsampled_PubMed_nolimits</text>
</g>
<!-- 2&#45;&gt;19 -->
<g id="edge32" class="edge"><title>2&#45;&gt;19</title>
<path fill="none" stroke="grey" stroke-width="2" d="M548.747,-215.697C537.664,-206.881 524.026,-196.032 512.01,-186.474"/>
<polygon fill="grey" stroke="grey" stroke-width="2" points="514.007,-183.59 504.003,-180.104 509.65,-189.069 514.007,-183.59"/>
</g>
<!-- 3 -->
<g id="node4" class="node"><title>3</title>
<path fill="none" stroke="#d8cb56" stroke-width="2" d="M787,-108C787,-108 734,-108 734,-108 728,-108 722,-102 722,-96 722,-96 722,-84 722,-84 722,-78 728,-72 734,-72 734,-72 787,-72 787,-72 793,-72 799,-78 799,-84 799,-84 799,-96 799,-96 799,-102 793,-108 787,-108"/>
<text text-anchor="middle" x="760.5" y="-87.5" font-family="sans" font-size="10.00">plot_metrics</text>
</g>
<!-- 3&#45;&gt;0 -->
<g id="edge1" class="edge"><title>3&#45;&gt;0</title>
<path fill="none" stroke="grey" stroke-width="2" d="M799.31,-74.1548C831.025,-62.0233 875.551,-44.9912 906.707,-33.0739"/>
<polygon fill="grey" stroke="grey" stroke-width="2" points="908.23,-36.2388 916.319,-29.397 905.729,-29.7008 908.23,-36.2388"/>
</g>
<!-- 4 -->
<g id="node5" class="node"><title>4</title>
<path fill="none" stroke="#97d856" stroke-width="2" d="M877.5,-180C877.5,-180 737.5,-180 737.5,-180 731.5,-180 725.5,-174 725.5,-168 725.5,-168 725.5,-156 725.5,-156 725.5,-150 731.5,-144 737.5,-144 737.5,-144 877.5,-144 877.5,-144 883.5,-144 889.5,-150 889.5,-156 889.5,-156 889.5,-168 889.5,-168 889.5,-174 883.5,-180 877.5,-180"/>
<text text-anchor="middle" x="807.5" y="-159.5" font-family="sans" font-size="10.00">plot_metrics_reduced_species</text>
</g>
<!-- 4&#45;&gt;0 -->
<g id="edge9" class="edge"><title>4&#45;&gt;0</title>
<path fill="none" stroke="grey" stroke-width="2" d="M817.4,-143.68C828.72,-124.769 848.546,-94.2191 870.5,-72 881.59,-60.7758 895.258,-50.1773 907.757,-41.4506"/>
<polygon fill="grey" stroke="grey" stroke-width="2" points="909.877,-44.2415 916.177,-35.7233 905.94,-38.4535 909.877,-44.2415"/>
</g>
<!-- 5 -->
<g id="node6" class="node"><title>5</title>
<path fill="none" stroke="#78d856" stroke-width="2" d="M303.5,-108C303.5,-108 193.5,-108 193.5,-108 187.5,-108 181.5,-102 181.5,-96 181.5,-96 181.5,-84 181.5,-84 181.5,-78 187.5,-72 193.5,-72 193.5,-72 303.5,-72 303.5,-72 309.5,-72 315.5,-78 315.5,-84 315.5,-84 315.5,-96 315.5,-96 315.5,-102 309.5,-108 303.5,-108"/>
<text text-anchor="middle" x="248.5" y="-87.5" font-family="sans" font-size="10.00">plot_term_size_v_effect</text>
</g>
<!-- 5&#45;&gt;0 -->
<g id="edge11" class="edge"><title>5&#45;&gt;0</title>
<path fill="none" stroke="grey" stroke-width="2" d="M315.529,-82.0479C345.501,-78.9512 381.268,-75.272 413.5,-72 598.523,-53.2174 819.933,-31.2365 906.372,-22.6742"/>
<polygon fill="grey" stroke="grey" stroke-width="2" points="906.864,-26.1426 916.471,-21.674 906.174,-19.1767 906.864,-26.1426"/>
</g>
<!-- 6 -->
<g id="node7" class="node"><title>6</title>
<path fill="none" stroke="#5682d8" stroke-width="2" d="M1187,-108C1187,-108 1064,-108 1064,-108 1058,-108 1052,-102 1052,-96 1052,-96 1052,-84 1052,-84 1052,-78 1058,-72 1064,-72 1064,-72 1187,-72 1187,-72 1193,-72 1199,-78 1199,-84 1199,-84 1199,-96 1199,-96 1199,-102 1193,-108 1187,-108"/>
<text text-anchor="middle" x="1125.5" y="-87.5" font-family="sans" font-size="10.00">plot_non_redundant_terms</text>
</g>
<!-- 6&#45;&gt;0 -->
<g id="edge7" class="edge"><title>6&#45;&gt;0</title>
<path fill="none" stroke="grey" stroke-width="2" d="M1080.98,-71.8761C1049.97,-59.9485 1009.11,-44.2347 980.015,-33.0444"/>
<polygon fill="grey" stroke="grey" stroke-width="2" points="981.22,-29.7579 970.63,-29.4348 978.708,-36.2914 981.22,-29.7579"/>
</g>
<!-- 7 -->
<g id="node8" class="node"><title>7</title>
<path fill="none" stroke="#56d85b" stroke-width="2" d="M995.5,-108C995.5,-108 891.5,-108 891.5,-108 885.5,-108 879.5,-102 879.5,-96 879.5,-96 879.5,-84 879.5,-84 879.5,-78 885.5,-72 891.5,-72 891.5,-72 995.5,-72 995.5,-72 1001.5,-72 1007.5,-78 1007.5,-84 1007.5,-84 1007.5,-96 1007.5,-96 1007.5,-102 1001.5,-108 995.5,-108"/>
<text text-anchor="middle" x="943.5" y="-87.5" font-family="sans" font-size="10.00">plot_database_novelty</text>
</g>
<!-- 7&#45;&gt;0 -->
<g id="edge13" class="edge"><title>7&#45;&gt;0</title>
<path fill="none" stroke="grey" stroke-width="2" d="M943.5,-71.6966C943.5,-63.9827 943.5,-54.7125 943.5,-46.1124"/>
<polygon fill="grey" stroke="grey" stroke-width="2" points="947,-46.1043 943.5,-36.1043 940,-46.1044 947,-46.1043"/>
</g>
<!-- 8 -->
<g id="node9" class="node"><title>8</title>
<path fill="none" stroke="#56a2d8" stroke-width="2" d="M1465.5,-108C1465.5,-108 1367.5,-108 1367.5,-108 1361.5,-108 1355.5,-102 1355.5,-96 1355.5,-96 1355.5,-84 1355.5,-84 1355.5,-78 1361.5,-72 1367.5,-72 1367.5,-72 1465.5,-72 1465.5,-72 1471.5,-72 1477.5,-78 1477.5,-84 1477.5,-84 1477.5,-96 1477.5,-96 1477.5,-102 1471.5,-108 1465.5,-108"/>
<text text-anchor="middle" x="1416.5" y="-87.5" font-family="sans" font-size="10.00">plot_metrics_nolimits</text>
</g>
<!-- 8&#45;&gt;0 -->
<g id="edge5" class="edge"><title>8&#45;&gt;0</title>
<path fill="none" stroke="grey" stroke-width="2" d="M1355.2,-74.6296C1350.57,-73.6911 1345.97,-72.8022 1341.5,-72 1209.67,-48.3326 1051.53,-30.3366 980.837,-22.8307"/>
<polygon fill="grey" stroke="grey" stroke-width="2" points="980.967,-19.3252 970.656,-21.7584 980.234,-26.2867 980.967,-19.3252"/>
</g>
<!-- 9 -->
<g id="node10" class="node"><title>9</title>
<path fill="none" stroke="#a7d856" stroke-width="2" d="M1693,-108C1693,-108 1508,-108 1508,-108 1502,-108 1496,-102 1496,-96 1496,-96 1496,-84 1496,-84 1496,-78 1502,-72 1508,-72 1508,-72 1693,-72 1693,-72 1699,-72 1705,-78 1705,-84 1705,-84 1705,-96 1705,-96 1705,-102 1699,-108 1693,-108"/>
<text text-anchor="middle" x="1600.5" y="-87.5" font-family="sans" font-size="10.00">plot_metrics_reduced_species_nolimits</text>
</g>
<!-- 9&#45;&gt;0 -->
<g id="edge6" class="edge"><title>9&#45;&gt;0</title>
<path fill="none" stroke="grey" stroke-width="2" d="M1495.85,-73.1842C1492.7,-72.7754 1489.58,-72.3795 1486.5,-72 1296.8,-48.6126 1068.76,-29.1638 980.707,-21.9765"/>
<polygon fill="grey" stroke="grey" stroke-width="2" points="980.924,-18.4827 970.674,-21.1613 980.357,-25.4597 980.924,-18.4827"/>
</g>
<!-- 10 -->
<g id="node11" class="node"><title>10</title>
<path fill="none" stroke="#88d856" stroke-width="2" d="M590,-108C590,-108 435,-108 435,-108 429,-108 423,-102 423,-96 423,-96 423,-84 423,-84 423,-78 429,-72 435,-72 435,-72 590,-72 590,-72 596,-72 602,-78 602,-84 602,-84 602,-96 602,-96 602,-102 596,-108 590,-108"/>
<text text-anchor="middle" x="512.5" y="-87.5" font-family="sans" font-size="10.00">plot_term_size_v_effect_nolimits</text>
</g>
<!-- 10&#45;&gt;0 -->
<g id="edge10" class="edge"><title>10&#45;&gt;0</title>
<path fill="none" stroke="grey" stroke-width="2" d="M602.065,-74.4535C695.944,-59.2062 838.946,-35.981 906.145,-25.0669"/>
<polygon fill="grey" stroke="grey" stroke-width="2" points="906.951,-28.482 916.26,-23.4241 905.829,-21.5725 906.951,-28.482"/>
</g>
<!-- 11 -->
<g id="node12" class="node"><title>11</title>
<path fill="none" stroke="#5663d8" stroke-width="2" d="M1329.5,-324C1329.5,-324 1249.5,-324 1249.5,-324 1243.5,-324 1237.5,-318 1237.5,-312 1237.5,-312 1237.5,-300 1237.5,-300 1237.5,-294 1243.5,-288 1249.5,-288 1249.5,-288 1329.5,-288 1329.5,-288 1335.5,-288 1341.5,-294 1341.5,-300 1341.5,-300 1341.5,-312 1341.5,-312 1341.5,-318 1335.5,-324 1329.5,-324"/>
<text text-anchor="middle" x="1289.5" y="-303.5" font-family="sans" font-size="10.00">collect_cameraPR</text>
</g>
<!-- 11&#45;&gt;0 -->
<g id="edge8" class="edge"><title>11&#45;&gt;0</title>
<path fill="none" stroke="grey" stroke-width="2" d="M1290.72,-287.678C1292.16,-257.2 1292.1,-192.612 1270.5,-144 1253.23,-105.143 1244.29,-93.3135 1207.5,-72 1134.88,-29.9314 1034.28,-20.8016 980.655,-19.101"/>
<polygon fill="grey" stroke="grey" stroke-width="2" points="980.663,-15.6002 970.579,-18.8523 980.49,-22.598 980.663,-15.6002"/>
</g>
<!-- 14 -->
<g id="node15" class="node"><title>14</title>
<path fill="none" stroke="#b6d856" stroke-width="2" d="M1019.5,-252C1019.5,-252 907.5,-252 907.5,-252 901.5,-252 895.5,-246 895.5,-240 895.5,-240 895.5,-228 895.5,-228 895.5,-222 901.5,-216 907.5,-216 907.5,-216 1019.5,-216 1019.5,-216 1025.5,-216 1031.5,-222 1031.5,-228 1031.5,-228 1031.5,-240 1031.5,-240 1031.5,-246 1025.5,-252 1019.5,-252"/>
<text text-anchor="middle" x="963.5" y="-231.5" font-family="sans" font-size="10.00">write_cameraPR_termDf</text>
</g>
<!-- 11&#45;&gt;14 -->
<g id="edge27" class="edge"><title>11&#45;&gt;14</title>
<path fill="none" stroke="grey" stroke-width="2" d="M1237.48,-293.831C1184.7,-282.496 1102.33,-264.811 1041.69,-251.788"/>
<polygon fill="grey" stroke="grey" stroke-width="2" points="1042.28,-248.336 1031.77,-249.659 1040.81,-255.18 1042.28,-248.336"/>
</g>
<!-- 12 -->
<g id="node13" class="node"><title>12</title>
<path fill="none" stroke="#61d856" stroke-width="2" d="M1496,-252C1496,-252 1371,-252 1371,-252 1365,-252 1359,-246 1359,-240 1359,-240 1359,-228 1359,-228 1359,-222 1365,-216 1371,-216 1371,-216 1496,-216 1496,-216 1502,-216 1508,-222 1508,-228 1508,-228 1508,-240 1508,-240 1508,-246 1502,-252 1496,-252"/>
<text text-anchor="middle" x="1433.5" y="-231.5" font-family="sans" font-size="10.00">collect_cameraPR_nolimits</text>
</g>
<!-- 12&#45;&gt;0 -->
<g id="edge12" class="edge"><title>12&#45;&gt;0</title>
<path fill="none" stroke="grey" stroke-width="2" d="M1394.02,-215.923C1377.53,-207.17 1359.28,-195.134 1346.5,-180 1313.17,-140.527 1344.03,-104.044 1303.5,-72 1254.06,-32.908 1062.97,-22.5567 981.093,-19.8924"/>
<polygon fill="grey" stroke="grey" stroke-width="2" points="980.849,-16.3834 970.747,-19.5781 980.636,-23.3802 980.849,-16.3834"/>
</g>
<!-- 18 -->
<g id="node19" class="node"><title>18</title>
<path fill="none" stroke="#56d86b" stroke-width="2" d="M1525,-180C1525,-180 1368,-180 1368,-180 1362,-180 1356,-174 1356,-168 1356,-168 1356,-156 1356,-156 1356,-150 1362,-144 1368,-144 1368,-144 1525,-144 1525,-144 1531,-144 1537,-150 1537,-156 1537,-156 1537,-168 1537,-168 1537,-174 1531,-180 1525,-180"/>
<text text-anchor="middle" x="1446.5" y="-159.5" font-family="sans" font-size="10.00">write_cameraPR_termDf_nolimits</text>
</g>
<!-- 12&#45;&gt;18 -->
<g id="edge31" class="edge"><title>12&#45;&gt;18</title>
<path fill="none" stroke="grey" stroke-width="2" d="M1436.71,-215.697C1438.15,-207.983 1439.87,-198.712 1441.46,-190.112"/>
<polygon fill="grey" stroke="grey" stroke-width="2" points="1444.94,-190.575 1443.32,-180.104 1438.06,-189.297 1444.94,-190.575"/>
</g>
<!-- 13 -->
<g id="node14" class="node"><title>13</title>
<path fill="none" stroke="#d86656" stroke-width="2" d="M1779,-396C1779,-396 1682,-396 1682,-396 1676,-396 1670,-390 1670,-384 1670,-384 1670,-372 1670,-372 1670,-366 1676,-360 1682,-360 1682,-360 1779,-360 1779,-360 1785,-360 1791,-366 1791,-372 1791,-372 1791,-384 1791,-384 1791,-390 1785,-396 1779,-396"/>
<text text-anchor="middle" x="1730.5" y="-375.5" font-family="sans" font-size="10.00">plot_user_input_stats</text>
</g>
<!-- 13&#45;&gt;0 -->
<g id="edge3" class="edge"><title>13&#45;&gt;0</title>
<path fill="none" stroke="grey" stroke-width="2" d="M1731.09,-359.953C1731.97,-333.297 1733.5,-280.125 1733.5,-235 1733.5,-235 1733.5,-235 1733.5,-161 1733.5,-120.458 1744.27,-98.4032 1713.5,-72 1657.51,-23.9517 1127.96,-19.3492 981.102,-19.0009"/>
<polygon fill="grey" stroke="grey" stroke-width="2" points="980.816,-15.5005 970.809,-18.9822 980.803,-22.5005 980.816,-15.5005"/>
</g>
<!-- 14&#45;&gt;3 -->
<g id="edge14" class="edge"><title>14&#45;&gt;3</title>
<path fill="none" stroke="grey" stroke-width="2" d="M895.262,-227.804C830.094,-221.256 738.623,-207.374 716.5,-180 700.693,-160.441 717.195,-134.269 734.313,-115.374"/>
<polygon fill="grey" stroke="grey" stroke-width="2" points="736.965,-117.664 741.34,-108.014 731.903,-112.829 736.965,-117.664"/>
</g>
<!-- 14&#45;&gt;4 -->
<g id="edge15" class="edge"><title>14&#45;&gt;4</title>
<path fill="none" stroke="grey" stroke-width="2" d="M925.338,-215.876C904.107,-206.349 877.492,-194.407 854.931,-184.283"/>
<polygon fill="grey" stroke="grey" stroke-width="2" points="856.094,-180.969 845.538,-180.068 853.229,-187.356 856.094,-180.969"/>
</g>
<!-- 14&#45;&gt;7 -->
<g id="edge18" class="edge"><title>14&#45;&gt;7</title>
<path fill="none" stroke="grey" stroke-width="2" d="M952.033,-215.667C946.125,-205.689 939.537,-192.652 936.5,-180 931.624,-159.686 933.823,-136.091 936.999,-118.301"/>
<polygon fill="grey" stroke="grey" stroke-width="2" points="940.467,-118.803 938.991,-108.311 933.603,-117.433 940.467,-118.803"/>
</g>
<!-- 16 -->
<g id="node17" class="node"><title>16</title>
<path fill="none" stroke="#d8ac56" stroke-width="2" d="M1249.5,-180C1249.5,-180 1103.5,-180 1103.5,-180 1097.5,-180 1091.5,-174 1091.5,-168 1091.5,-168 1091.5,-156 1091.5,-156 1091.5,-150 1097.5,-144 1103.5,-144 1103.5,-144 1249.5,-144 1249.5,-144 1255.5,-144 1261.5,-150 1261.5,-156 1261.5,-156 1261.5,-168 1261.5,-168 1261.5,-174 1255.5,-180 1249.5,-180"/>
<text text-anchor="middle" x="1176.5" y="-159.5" font-family="sans" font-size="10.00">discard_enriched_term_subsets</text>
</g>
<!-- 14&#45;&gt;16 -->
<g id="edge29" class="edge"><title>14&#45;&gt;16</title>
<path fill="none" stroke="grey" stroke-width="2" d="M1015.33,-215.966C1045.35,-206.1 1083.32,-193.622 1114.87,-183.255"/>
<polygon fill="grey" stroke="grey" stroke-width="2" points="1116.03,-186.558 1124.43,-180.111 1113.84,-179.908 1116.03,-186.558"/>
</g>
<!-- 17 -->
<g id="node18" class="node"><title>17</title>
<path fill="none" stroke="#d8a456" stroke-width="2" d="M1061.5,-180C1061.5,-180 957.5,-180 957.5,-180 951.5,-180 945.5,-174 945.5,-168 945.5,-168 945.5,-156 945.5,-156 945.5,-150 951.5,-144 957.5,-144 957.5,-144 1061.5,-144 1061.5,-144 1067.5,-144 1073.5,-150 1073.5,-156 1073.5,-156 1073.5,-168 1073.5,-168 1073.5,-174 1067.5,-180 1061.5,-180"/>
<text text-anchor="middle" x="1009.5" y="-159.5" font-family="sans" font-size="10.00">calc_database_novelty</text>
</g>
<!-- 14&#45;&gt;17 -->
<g id="edge30" class="edge"><title>14&#45;&gt;17</title>
<path fill="none" stroke="grey" stroke-width="2" d="M974.871,-215.697C980.218,-207.559 986.704,-197.689 992.611,-188.701"/>
<polygon fill="grey" stroke="grey" stroke-width="2" points="995.693,-190.384 998.26,-180.104 989.843,-186.539 995.693,-190.384"/>
</g>
<!-- 15&#45;&gt;5 -->
<g id="edge16" class="edge"><title>15&#45;&gt;5</title>
<path fill="none" stroke="grey" stroke-width="2" d="M203.331,-143.697C210.525,-135.305 219.297,-125.07 227.19,-115.861"/>
<polygon fill="grey" stroke="grey" stroke-width="2" points="229.989,-117.975 233.839,-108.104 224.674,-113.419 229.989,-117.975"/>
</g>
<!-- 16&#45;&gt;6 -->
<g id="edge17" class="edge"><title>16&#45;&gt;6</title>
<path fill="none" stroke="grey" stroke-width="2" d="M1163.89,-143.697C1157.9,-135.474 1150.62,-125.483 1144.02,-116.421"/>
<polygon fill="grey" stroke="grey" stroke-width="2" points="1146.68,-114.126 1137.96,-108.104 1141.02,-118.248 1146.68,-114.126"/>
</g>
<!-- 17&#45;&gt;7 -->
<g id="edge19" class="edge"><title>17&#45;&gt;7</title>
<path fill="none" stroke="grey" stroke-width="2" d="M993.185,-143.697C985.193,-135.22 975.428,-124.864 966.678,-115.583"/>
<polygon fill="grey" stroke="grey" stroke-width="2" points="969.034,-112.979 959.627,-108.104 963.941,-117.781 969.034,-112.979"/>
</g>
<!-- 18&#45;&gt;8 -->
<g id="edge20" class="edge"><title>18&#45;&gt;8</title>
<path fill="none" stroke="grey" stroke-width="2" d="M1439.08,-143.697C1435.71,-135.813 1431.63,-126.304 1427.88,-117.546"/>
<polygon fill="grey" stroke="grey" stroke-width="2" points="1430.99,-115.917 1423.83,-108.104 1424.55,-118.675 1430.99,-115.917"/>
</g>
<!-- 18&#45;&gt;9 -->
<g id="edge21" class="edge"><title>18&#45;&gt;9</title>
<path fill="none" stroke="grey" stroke-width="2" d="M1484.17,-143.876C1505.13,-134.349 1531.4,-122.407 1553.68,-112.283"/>
<polygon fill="grey" stroke="grey" stroke-width="2" points="1555.29,-115.393 1562.95,-108.068 1552.4,-109.02 1555.29,-115.393"/>
</g>
<!-- 19&#45;&gt;10 -->
<g id="edge22" class="edge"><title>19&#45;&gt;10</title>
<path fill="none" stroke="grey" stroke-width="2" d="M489.916,-143.697C493.294,-135.813 497.37,-126.304 501.123,-117.546"/>
<polygon fill="grey" stroke="grey" stroke-width="2" points="504.447,-118.675 505.17,-108.104 498.013,-115.917 504.447,-118.675"/>
</g>
<!-- 20 -->
<g id="node21" class="node"><title>20</title>
<path fill="none" stroke="#56d8a9" stroke-width="2" d="M1330,-396C1330,-396 1263,-396 1263,-396 1257,-396 1251,-390 1251,-384 1251,-384 1251,-372 1251,-372 1251,-366 1257,-360 1263,-360 1263,-360 1330,-360 1330,-360 1336,-360 1342,-366 1342,-372 1342,-372 1342,-384 1342,-384 1342,-390 1336,-396 1330,-396"/>
<text text-anchor="middle" x="1296.5" y="-375.5" font-family="sans" font-size="10.00">get_effect_size</text>
</g>
<!-- 20&#45;&gt;11 -->
<g id="edge23" class="edge"><title>20&#45;&gt;11</title>
<path fill="none" stroke="grey" stroke-width="2" d="M1294.77,-359.697C1294,-351.983 1293.07,-342.712 1292.21,-334.112"/>
<polygon fill="grey" stroke="grey" stroke-width="2" points="1295.69,-333.706 1291.21,-324.104 1288.72,-334.403 1295.69,-333.706"/>
</g>
<!-- 21 -->
<g id="node22" class="node"><title>21</title>
<path fill="none" stroke="#56d87b" stroke-width="2" d="M1489.5,-396C1489.5,-396 1377.5,-396 1377.5,-396 1371.5,-396 1365.5,-390 1365.5,-384 1365.5,-384 1365.5,-372 1365.5,-372 1365.5,-366 1371.5,-360 1377.5,-360 1377.5,-360 1489.5,-360 1489.5,-360 1495.5,-360 1501.5,-366 1501.5,-372 1501.5,-372 1501.5,-384 1501.5,-384 1501.5,-390 1495.5,-396 1489.5,-396"/>
<text text-anchor="middle" x="1433.5" y="-375.5" font-family="sans" font-size="10.00">get_effect_size_nolimits</text>
</g>
<!-- 21&#45;&gt;12 -->
<g id="edge24" class="edge"><title>21&#45;&gt;12</title>
<path fill="none" stroke="grey" stroke-width="2" d="M1433.5,-359.871C1433.5,-335.67 1433.5,-291.211 1433.5,-262.393"/>
<polygon fill="grey" stroke="grey" stroke-width="2" points="1437,-262.189 1433.5,-252.189 1430,-262.189 1437,-262.189"/>
</g>
<!-- 22 -->
<g id="node23" class="node"><title>22</title>
<path fill="none" stroke="#70d856" stroke-width="2" d="M1625,-468C1625,-468 1534,-468 1534,-468 1528,-468 1522,-462 1522,-456 1522,-456 1522,-444 1522,-444 1522,-438 1528,-432 1534,-432 1534,-432 1625,-432 1625,-432 1631,-432 1637,-438 1637,-444 1637,-444 1637,-456 1637,-456 1637,-462 1631,-468 1625,-468"/>
<text text-anchor="middle" x="1579.5" y="-447.5" font-family="sans" font-size="10.00">apply_deduplication</text>
</g>
<!-- 22&#45;&gt;13 -->
<g id="edge25" class="edge"><title>22&#45;&gt;13</title>
<path fill="none" stroke="grey" stroke-width="2" d="M1616.44,-431.876C1636.99,-422.349 1662.75,-410.407 1684.59,-400.283"/>
<polygon fill="grey" stroke="grey" stroke-width="2" points="1686.08,-403.45 1693.68,-396.068 1683.14,-397.099 1686.08,-403.45"/>
</g>
<!-- 23 -->
<g id="node24" class="node"><title>23</title>
<path fill="none" stroke="#d89556" stroke-width="2" d="M1776,-468C1776,-468 1685,-468 1685,-468 1679,-468 1673,-462 1673,-456 1673,-456 1673,-444 1673,-444 1673,-438 1679,-432 1685,-432 1685,-432 1776,-432 1776,-432 1782,-432 1788,-438 1788,-444 1788,-444 1788,-456 1788,-456 1788,-462 1782,-468 1776,-468"/>
<text text-anchor="middle" x="1730.5" y="-447.5" font-family="sans" font-size="10.00">get_proteome_sizes</text>
</g>
<!-- 23&#45;&gt;13 -->
<g id="edge26" class="edge"><title>23&#45;&gt;13</title>
<path fill="none" stroke="grey" stroke-width="2" d="M1730.5,-431.697C1730.5,-423.983 1730.5,-414.712 1730.5,-406.112"/>
<polygon fill="grey" stroke="grey" stroke-width="2" points="1734,-406.104 1730.5,-396.104 1727,-406.104 1734,-406.104"/>
</g>
<!-- 24 -->
<g id="node25" class="node"><title>24</title>
<path fill="none" stroke="#d88556" stroke-width="2" d="M1330,-468C1330,-468 1267,-468 1267,-468 1261,-468 1255,-462 1255,-456 1255,-456 1255,-444 1255,-444 1255,-438 1261,-432 1267,-432 1267,-432 1330,-432 1330,-432 1336,-432 1342,-438 1342,-444 1342,-444 1342,-456 1342,-456 1342,-462 1336,-468 1330,-468"/>
<text text-anchor="middle" x="1298.5" y="-447.5" font-family="sans" font-size="10.00">run_cameraPR</text>
</g>
<!-- 24&#45;&gt;20 -->
<g id="edge33" class="edge"><title>24&#45;&gt;20</title>
<path fill="none" stroke="grey" stroke-width="2" d="M1298.01,-431.697C1297.79,-423.983 1297.52,-414.712 1297.27,-406.112"/>
<polygon fill="grey" stroke="grey" stroke-width="2" points="1300.77,-406 1296.99,-396.104 1293.78,-406.2 1300.77,-406"/>
</g>
<!-- 25 -->
<g id="node26" class="node"><title>25</title>
<path fill="none" stroke="#5692d8" stroke-width="2" d="M1487.5,-468C1487.5,-468 1379.5,-468 1379.5,-468 1373.5,-468 1367.5,-462 1367.5,-456 1367.5,-456 1367.5,-444 1367.5,-444 1367.5,-438 1373.5,-432 1379.5,-432 1379.5,-432 1487.5,-432 1487.5,-432 1493.5,-432 1499.5,-438 1499.5,-444 1499.5,-444 1499.5,-456 1499.5,-456 1499.5,-462 1493.5,-468 1487.5,-468"/>
<text text-anchor="middle" x="1433.5" y="-447.5" font-family="sans" font-size="10.00">run_cameraPR_nolimits</text>
</g>
<!-- 25&#45;&gt;21 -->
<g id="edge34" class="edge"><title>25&#45;&gt;21</title>
<path fill="none" stroke="grey" stroke-width="2" d="M1433.5,-431.697C1433.5,-423.983 1433.5,-414.712 1433.5,-406.112"/>
<polygon fill="grey" stroke="grey" stroke-width="2" points="1437,-406.104 1433.5,-396.104 1430,-406.104 1437,-406.104"/>
</g>
<!-- 26 -->
<g id="node27" class="node"><title>26</title>
<path fill="none" stroke="#56d88a" stroke-width="2" d="M1605,-540C1605,-540 1554,-540 1554,-540 1548,-540 1542,-534 1542,-528 1542,-528 1542,-516 1542,-516 1542,-510 1548,-504 1554,-504 1554,-504 1605,-504 1605,-504 1611,-504 1617,-510 1617,-516 1617,-516 1617,-528 1617,-528 1617,-534 1611,-540 1605,-540"/>
<text text-anchor="middle" x="1579.5" y="-519.5" font-family="sans" font-size="10.00">filter_inputs</text>
</g>
<!-- 26&#45;&gt;22 -->
<g id="edge36" class="edge"><title>26&#45;&gt;22</title>
<path fill="none" stroke="grey" stroke-width="2" d="M1579.5,-503.697C1579.5,-495.983 1579.5,-486.712 1579.5,-478.112"/>
<polygon fill="grey" stroke="grey" stroke-width="2" points="1583,-478.104 1579.5,-468.104 1576,-478.104 1583,-478.104"/>
</g>
<!-- 27 -->
<g id="node28" class="node"><title>27</title>
<path fill="none" stroke="#d87556" stroke-width="2" d="M1501.5,-540C1501.5,-540 1377.5,-540 1377.5,-540 1371.5,-540 1365.5,-534 1365.5,-528 1365.5,-528 1365.5,-516 1365.5,-516 1365.5,-510 1371.5,-504 1377.5,-504 1377.5,-504 1501.5,-504 1501.5,-504 1507.5,-504 1513.5,-510 1513.5,-516 1513.5,-516 1513.5,-528 1513.5,-528 1513.5,-534 1507.5,-540 1501.5,-540"/>
<text text-anchor="middle" x="1439.5" y="-519.5" font-family="sans" font-size="10.00">deduplicate_similar_inputs</text>
</g>
<!-- 27&#45;&gt;22 -->
<g id="edge35" class="edge"><title>27&#45;&gt;22</title>
<path fill="none" stroke="grey" stroke-width="2" d="M1473.75,-503.876C1492.56,-494.469 1516.08,-482.708 1536.17,-472.667"/>
<polygon fill="grey" stroke="grey" stroke-width="2" points="1537.74,-475.792 1545.12,-468.19 1534.61,-469.531 1537.74,-475.792"/>
</g>
<!-- 27&#45;&gt;24 -->
<g id="edge37" class="edge"><title>27&#45;&gt;24</title>
<path fill="none" stroke="grey" stroke-width="2" d="M1405.01,-503.876C1386.06,-494.469 1362.37,-482.708 1342.14,-472.667"/>
<polygon fill="grey" stroke="grey" stroke-width="2" points="1343.64,-469.502 1333.13,-468.19 1340.53,-475.771 1343.64,-469.502"/>
</g>
<!-- 27&#45;&gt;25 -->
<g id="edge39" class="edge"><title>27&#45;&gt;25</title>
<path fill="none" stroke="grey" stroke-width="2" d="M1438.02,-503.697C1437.36,-495.983 1436.56,-486.712 1435.82,-478.112"/>
<polygon fill="grey" stroke="grey" stroke-width="2" points="1439.31,-477.769 1434.97,-468.104 1432.33,-478.367 1439.31,-477.769"/>
</g>
<!-- 28 -->
<g id="node29" class="node"><title>28</title>
<path fill="none" stroke="#56d0d8" stroke-width="2" d="M1335.5,-540C1335.5,-540 1261.5,-540 1261.5,-540 1255.5,-540 1249.5,-534 1249.5,-528 1249.5,-528 1249.5,-516 1249.5,-516 1249.5,-510 1255.5,-504 1261.5,-504 1261.5,-504 1335.5,-504 1335.5,-504 1341.5,-504 1347.5,-510 1347.5,-516 1347.5,-516 1347.5,-528 1347.5,-528 1347.5,-534 1341.5,-540 1335.5,-540"/>
<text text-anchor="middle" x="1298.5" y="-519.5" font-family="sans" font-size="10.00">parse_term_lists</text>
</g>
<!-- 28&#45;&gt;24 -->
<g id="edge38" class="edge"><title>28&#45;&gt;24</title>
<path fill="none" stroke="grey" stroke-width="2" d="M1298.5,-503.697C1298.5,-495.983 1298.5,-486.712 1298.5,-478.112"/>
<polygon fill="grey" stroke="grey" stroke-width="2" points="1302,-478.104 1298.5,-468.104 1295,-478.104 1302,-478.104"/>
</g>
<!-- 28&#45;&gt;25 -->
<g id="edge40" class="edge"><title>28&#45;&gt;25</title>
<path fill="none" stroke="grey" stroke-width="2" d="M1331.52,-503.876C1349.58,-494.512 1372.15,-482.814 1391.45,-472.803"/>
<polygon fill="grey" stroke="grey" stroke-width="2" points="1393.08,-475.9 1400.35,-468.19 1389.86,-469.686 1393.08,-475.9"/>
</g>
</g>
</svg>
